<mxfile host="app.diagrams.net" modified="2021-10-11T12:48:49.321Z" agent="5.0 (Macintosh)" etag="4AFf8N28naPaaUHXDd6u" version="15.5.0" type="github">
  <diagram id="SljI8u37_UyZD3hK8xtN" name="Page-1">
    <mxGraphModel dx="988" dy="483" grid="1" gridSize="10" guides="1" tooltips="1" connect="1" arrows="1" fold="1" page="1" pageScale="1" pageWidth="850" pageHeight="1100" math="0" shadow="0">
      <root>
        <mxCell id="0" />
        <mxCell id="1" parent="0" />
        <mxCell id="pUy638acDc4TvVSmpvh4-28" value="&lt;font style=&quot;font-size: 20px&quot;&gt;z/VM 7.1&lt;/font&gt;" style="rounded=0;whiteSpace=wrap;html=1;align=left;fillColor=#b1ddf0;strokeColor=#10739e;fontStyle=0;verticalAlign=bottom;spacingLeft=5;" vertex="1" parent="1">
          <mxGeometry x="60" y="30" width="720" height="310" as="geometry" />
        </mxCell>
        <mxCell id="pUy638acDc4TvVSmpvh4-24" value="Red Hat OpenShift (OCP) Cluster 1" style="rounded=0;whiteSpace=wrap;html=1;labelBackgroundColor=none;fontSize=20;align=center;dashed=1;strokeColor=#000000;verticalAlign=top;fontStyle=1;strokeWidth=2;spacing=4;" vertex="1" parent="1">
          <mxGeometry x="80" y="60" width="450" height="230" as="geometry" />
        </mxCell>
        <mxCell id="pUy638acDc4TvVSmpvh4-1" value="&lt;div align=&quot;left&quot;&gt;&lt;font style=&quot;font-size: 24px&quot;&gt;IBM z14&lt;/font&gt;&lt;br&gt;&lt;/div&gt;" style="rounded=0;whiteSpace=wrap;html=1;align=left;fillColor=#1ba1e2;strokeColor=#006EAF;fontColor=#ffffff;spacingLeft=5;" vertex="1" parent="1">
          <mxGeometry x="60" y="400" width="720" height="80" as="geometry" />
        </mxCell>
        <mxCell id="pUy638acDc4TvVSmpvh4-2" value="&lt;font style=&quot;font-size: 20px&quot;&gt;LPAR&lt;/font&gt;" style="rounded=0;whiteSpace=wrap;html=1;align=left;fillColor=#eeeeee;strokeColor=#36393d;spacingLeft=5;" vertex="1" parent="1">
          <mxGeometry x="60" y="350" width="720" height="40" as="geometry" />
        </mxCell>
        <mxCell id="pUy638acDc4TvVSmpvh4-26" value="OCP Cluster 2" style="rounded=0;whiteSpace=wrap;html=1;labelBackgroundColor=none;fontSize=20;align=center;dashed=1;strokeColor=#3333FF;verticalAlign=top;fontStyle=1;strokeWidth=2;spacing=4;" vertex="1" parent="1">
          <mxGeometry x="548" y="60" width="100" height="230" as="geometry" />
        </mxCell>
        <mxCell id="pUy638acDc4TvVSmpvh4-27" value="OCP Cluster 3" style="rounded=0;whiteSpace=wrap;html=1;labelBackgroundColor=none;fontSize=20;align=center;dashed=1;strokeColor=#3333FF;verticalAlign=top;fontStyle=1;strokeWidth=2;spacing=4;" vertex="1" parent="1">
          <mxGeometry x="660" y="60" width="100" height="230" as="geometry" />
        </mxCell>
        <mxCell id="pUy638acDc4TvVSmpvh4-29" value="&lt;font style=&quot;font-size: 11px&quot;&gt;CoreOS&lt;/font&gt;" style="rounded=0;whiteSpace=wrap;html=1;labelBackgroundColor=none;fontSize=20;strokeColor=#b85450;strokeWidth=1;align=center;verticalAlign=bottom;fillColor=#f8cecc;" vertex="1" parent="1">
          <mxGeometry x="93" y="100" width="64" height="164" as="geometry" />
        </mxCell>
        <mxCell id="pUy638acDc4TvVSmpvh4-3" value="&lt;div style=&quot;font-size: 12px;&quot;&gt;OCP Control Plane&lt;br style=&quot;font-size: 12px;&quot;&gt;&lt;/div&gt;" style="rounded=0;whiteSpace=wrap;html=1;labelBackgroundColor=none;fontSize=12;align=center;fontStyle=1;fillColor=#e1d5e7;strokeColor=#9673a6;" vertex="1" parent="1">
          <mxGeometry x="100" y="104" width="50" height="136" as="geometry" />
        </mxCell>
        <mxCell id="pUy638acDc4TvVSmpvh4-33" value="&lt;font style=&quot;font-size: 11px&quot;&gt;CoreOS&lt;/font&gt;" style="rounded=0;whiteSpace=wrap;html=1;labelBackgroundColor=none;fontSize=20;strokeColor=#b85450;strokeWidth=1;align=center;verticalAlign=bottom;fillColor=#f8cecc;" vertex="1" parent="1">
          <mxGeometry x="163" y="100" width="64" height="164" as="geometry" />
        </mxCell>
        <mxCell id="pUy638acDc4TvVSmpvh4-34" value="&lt;font style=&quot;font-size: 11px&quot;&gt;CoreOS&lt;/font&gt;" style="rounded=0;whiteSpace=wrap;html=1;labelBackgroundColor=none;fontSize=20;strokeColor=#b85450;strokeWidth=1;align=center;verticalAlign=bottom;fillColor=#f8cecc;" vertex="1" parent="1">
          <mxGeometry x="233" y="100" width="64" height="164" as="geometry" />
        </mxCell>
        <mxCell id="pUy638acDc4TvVSmpvh4-35" value="&lt;font style=&quot;font-size: 11px&quot;&gt;CoreOS&lt;/font&gt;" style="rounded=0;whiteSpace=wrap;html=1;labelBackgroundColor=none;fontSize=20;strokeColor=#b85450;strokeWidth=1;align=center;verticalAlign=bottom;fillColor=#f8cecc;" vertex="1" parent="1">
          <mxGeometry x="303" y="100" width="64" height="164" as="geometry" />
        </mxCell>
        <mxCell id="pUy638acDc4TvVSmpvh4-36" value="&lt;font style=&quot;font-size: 11px&quot;&gt;CoreOS&lt;/font&gt;" style="rounded=0;whiteSpace=wrap;html=1;labelBackgroundColor=none;fontSize=20;strokeColor=#b85450;strokeWidth=1;align=center;verticalAlign=bottom;fillColor=#f8cecc;" vertex="1" parent="1">
          <mxGeometry x="373" y="100" width="64" height="164" as="geometry" />
        </mxCell>
        <mxCell id="pUy638acDc4TvVSmpvh4-37" value="&lt;font style=&quot;font-size: 11px&quot;&gt;CoreOS&lt;/font&gt;" style="rounded=0;whiteSpace=wrap;html=1;labelBackgroundColor=none;fontSize=20;strokeColor=#b85450;strokeWidth=1;align=center;verticalAlign=bottom;fillColor=#f8cecc;" vertex="1" parent="1">
          <mxGeometry x="443" y="100" width="64" height="164" as="geometry" />
        </mxCell>
        <mxCell id="pUy638acDc4TvVSmpvh4-19" value="&lt;div style=&quot;font-size: 12px;&quot;&gt;OCP Control Plane&lt;br style=&quot;font-size: 12px;&quot;&gt;&lt;/div&gt;" style="rounded=0;whiteSpace=wrap;html=1;labelBackgroundColor=none;fontSize=12;align=center;fontStyle=1;fillColor=#e1d5e7;strokeColor=#9673a6;" vertex="1" parent="1">
          <mxGeometry x="170" y="104" width="50" height="136" as="geometry" />
        </mxCell>
        <mxCell id="pUy638acDc4TvVSmpvh4-20" value="&lt;div style=&quot;font-size: 12px;&quot;&gt;OCP Control Plane&lt;br style=&quot;font-size: 12px;&quot;&gt;&lt;/div&gt;" style="rounded=0;whiteSpace=wrap;html=1;labelBackgroundColor=none;fontSize=12;align=center;fontStyle=1;fillColor=#e1d5e7;strokeColor=#9673a6;" vertex="1" parent="1">
          <mxGeometry x="240" y="104" width="50" height="136" as="geometry" />
        </mxCell>
        <mxCell id="pUy638acDc4TvVSmpvh4-21" value="&lt;div style=&quot;font-size: 12px;&quot;&gt;OCP Compute Node&lt;br style=&quot;font-size: 12px;&quot;&gt;&lt;/div&gt;" style="rounded=0;whiteSpace=wrap;html=1;labelBackgroundColor=none;fontSize=12;align=center;fontStyle=1;fillColor=#cdeb8b;strokeColor=#36393d;" vertex="1" parent="1">
          <mxGeometry x="310" y="104" width="50" height="136" as="geometry" />
        </mxCell>
        <mxCell id="pUy638acDc4TvVSmpvh4-22" value="&lt;div style=&quot;font-size: 12px;&quot;&gt;OCP Compute Node&lt;br style=&quot;font-size: 12px;&quot;&gt;&lt;/div&gt;" style="rounded=0;whiteSpace=wrap;html=1;labelBackgroundColor=none;fontSize=12;align=center;fontStyle=1;fillColor=#cdeb8b;strokeColor=#36393d;" vertex="1" parent="1">
          <mxGeometry x="380" y="104" width="50" height="136" as="geometry" />
        </mxCell>
        <mxCell id="pUy638acDc4TvVSmpvh4-23" value="&lt;div style=&quot;font-size: 12px;&quot;&gt;OCP Compute Node&lt;br style=&quot;font-size: 12px;&quot;&gt;&lt;/div&gt;" style="rounded=0;whiteSpace=wrap;html=1;labelBackgroundColor=none;fontSize=12;align=center;fontStyle=1;fillColor=#cdeb8b;strokeColor=#36393d;" vertex="1" parent="1">
          <mxGeometry x="450" y="104" width="50" height="136" as="geometry" />
        </mxCell>
      </root>
    </mxGraphModel>
  </diagram>
</mxfile>
